static optimization
version=1
nRows=14
nColumns=93
inDegrees=yes
endheader
time	glut_med1_r	glut_med2_r	glut_med3_r	glut_min1_r	glut_min2_r	glut_min3_r	semimem_r	semiten_r	bifemlh_r	bifemsh_r	sar_r	add_long_r	add_brev_r	add_mag1_r	add_mag2_r	add_mag3_r	tfl_r	pect_r	grac_r	glut_max1_r	glut_max2_r	glut_max3_r	iliacus_r	psoas_r	quad_fem_r	gem_r	peri_r	rect_fem_r	vas_med_r	vas_int_r	vas_lat_r	med_gas_r	lat_gas_r	soleus_r	tib_post_r	flex_dig_r	flex_hal_r	tib_ant_r	per_brev_r	per_long_r	per_tert_r	ext_dig_r	ext_hal_r	glut_med1_l	glut_med2_l	glut_med3_l	glut_min1_l	glut_min2_l	glut_min3_l	semimem_l	semiten_l	bifemlh_l	bifemsh_l	sar_l	add_long_l	add_brev_l	add_mag1_l	add_mag2_l	add_mag3_l	tfl_l	pect_l	grac_l	glut_max1_l	glut_max2_l	glut_max3_l	iliacus_l	psoas_l	quad_fem_l	gem_l	peri_l	rect_fem_l	vas_med_l	vas_int_l	vas_lat_l	med_gas_l	lat_gas_l	soleus_l	tib_post_l	flex_dig_l	flex_hal_l	tib_ant_l	per_brev_l	per_long_l	per_tert_l	ext_dig_l	ext_hal_l	ercspn_r	ercspn_l	intobl_r	intobl_l	extobl_r	extobl_l
1.148000	0.469139	0.296172	0.275599	0.162736	0.164919	0.161772	0.149663	0.022862	0.000000	0.340259	0.091418	0.000000	0.000000	0.000000	0.000000	0.000000	0.149502	0.000000	0.000000	0.015516	0.000000	0.000000	0.334200	0.346062	0.000000	0.000000	0.121289	0.000000	0.000000	0.000000	0.000000	0.812949	0.358238	0.246068	0.031312	0.005723	0.008207	0.000000	0.004250	0.014249	0.000000	0.000000	0.000000	0.008440	0.006265	0.007418	0.004115	0.005170	0.005995	0.187859	0.065678	0.104225	0.119699	0.014731	0.000000	0.000000	0.000000	0.000000	0.000000	0.000000	0.000000	0.013164	0.000000	0.000000	0.000000	0.022551	0.024568	0.000000	0.001360	0.007692	0.000000	0.000000	0.000000	0.000000	0.042251	0.017139	0.000000	0.000000	0.000000	0.000000	0.084872	0.000000	0.000000	0.010460	0.042835	0.014306	0.000000	0.000000	0.000000	0.000000	0.000000	0.000000
1.164000	0.462980	0.287784	0.263731	0.161590	0.162289	0.157340	0.177142	0.036006	0.000000	0.349904	0.088394	0.000000	0.000000	0.000000	0.000000	0.000000	0.143494	0.000000	0.000000	0.003998	0.000000	0.000000	0.344178	0.355479	0.000000	0.000000	0.114448	0.000000	0.000000	0.000000	0.000000	0.844167	0.371981	0.264059	0.033573	0.006133	0.008807	0.000000	0.004556	0.015301	0.000000	0.000000	0.000000	0.017456	0.049419	0.085340	0.008701	0.019538	0.033156	0.203889	0.062363	0.100620	0.173403	0.041264	0.000000	0.000000	0.000000	0.000000	0.000000	0.021886	0.000000	0.000000	0.021852	0.000000	0.000000	0.022008	0.030233	0.000000	0.015168	0.061226	0.000000	0.000000	0.000000	0.000000	0.068856	0.027951	0.000000	0.000000	0.000000	0.000000	0.128827	0.000000	0.000000	0.015874	0.065009	0.021715	0.000000	0.000000	0.000000	0.000000	0.000000	0.000000
1.180000	0.444639	0.273283	0.247911	0.156664	0.156139	0.149912	0.202881	0.048951	0.000000	0.356198	0.084529	0.000000	0.000000	0.000000	0.000000	0.000000	0.134923	0.000000	0.000000	0.000000	0.000000	0.000000	0.348933	0.359608	0.000000	0.000000	0.106711	0.000000	0.000000	0.000000	0.000000	0.868344	0.382670	0.287197	0.036489	0.006657	0.009577	0.000000	0.004945	0.016654	0.000000	0.000000	0.000000	0.023227	0.086463	0.154073	0.012650	0.032324	0.057303	0.198279	0.053229	0.082078	0.215747	0.066025	0.000000	0.000000	0.000000	0.000000	0.000000	0.043954	0.000000	0.000000	0.044628	0.006455	0.000000	0.031653	0.045939	0.000574	0.027769	0.109114	0.000000	0.000000	0.000000	0.000000	0.092516	0.037456	0.000000	0.000000	0.000000	0.000000	0.170434	0.000000	0.000000	0.020989	0.085994	0.028730	0.000000	0.000000	0.000000	0.000000	0.000000	0.000000
1.196000	0.425323	0.254748	0.225586	0.152702	0.150207	0.141603	0.184651	0.044880	0.000000	0.351888	0.083007	0.000000	0.000000	0.000000	0.000000	0.000000	0.132085	0.000000	0.000000	0.000000	0.000000	0.000000	0.367162	0.377305	0.000000	0.000000	0.096628	0.000000	0.000000	0.000000	0.000000	0.867990	0.382585	0.311426	0.039534	0.007206	0.010384	0.000000	0.005354	0.018073	0.000000	0.000000	0.000000	0.024687	0.105158	0.190205	0.014541	0.038966	0.069901	0.171885	0.040575	0.056307	0.229034	0.079320	0.000000	0.000000	0.000000	0.000000	0.000000	0.057481	0.000000	0.000000	0.056297	0.009405	0.000000	0.043184	0.061001	0.003959	0.034581	0.134327	0.000000	0.000000	0.000000	0.000000	0.102742	0.041474	0.000000	0.000000	0.000000	0.000000	0.190081	0.000000	0.000000	0.023392	0.095884	0.032039	0.000000	0.000000	0.000000	0.000000	0.000000	0.000000
1.212000	0.401149	0.236297	0.206968	0.147909	0.143995	0.133891	0.139977	0.030723	0.000000	0.340287	0.082751	0.000000	0.000000	0.000000	0.000000	0.000000	0.132091	0.000000	0.000000	0.000000	0.000000	0.000000	0.390292	0.400253	0.000000	0.000000	0.089655	0.000000	0.000000	0.000000	0.000000	0.849987	0.374769	0.337139	0.042763	0.007787	0.011241	0.000000	0.005788	0.019582	0.000000	0.000000	0.000000	0.013147	0.096134	0.180848	0.011419	0.035288	0.065461	0.118134	0.022071	0.023681	0.205088	0.077816	0.000000	0.000000	0.000000	0.000000	0.000000	0.058391	0.000000	0.000000	0.050638	0.003471	0.000000	0.052887	0.070779	0.008733	0.034590	0.129527	0.000000	0.000000	0.000000	0.000000	0.088254	0.035343	0.000000	0.000000	0.000000	0.000000	0.176198	0.000000	0.000000	0.021674	0.088869	0.029697	0.000000	0.000000	0.000000	0.000000	0.000000	0.000000
1.228000	0.366137	0.210236	0.180961	0.140100	0.134574	0.122813	0.076931	0.009905	0.000000	0.320341	0.082274	0.000000	0.000000	0.000000	0.000000	0.000000	0.131785	0.000000	0.000749	0.000000	0.000000	0.000000	0.413365	0.423062	0.000000	0.000000	0.080157	0.000000	0.000000	0.000000	0.000000	0.813417	0.358824	0.365397	0.046315	0.008423	0.012183	0.000000	0.006260	0.021243	0.000000	0.000000	0.000000	0.016756	0.087761	0.162235	0.011573	0.032722	0.059227	0.118652	0.024473	0.028768	0.189615	0.069542	0.000000	0.000000	0.000000	0.000000	0.000000	0.052016	0.000000	0.000000	0.047555	0.004922	0.000000	0.048512	0.064516	0.005685	0.030183	0.114941	0.000000	0.000000	0.000000	0.000000	0.075040	0.029807	0.000000	0.000000	0.000000	0.000000	0.163611	0.000000	0.000000	0.020129	0.082530	0.027579	0.000000	0.000000	0.000000	0.000000	0.000000	0.000000
1.244000	0.327356	0.192674	0.173403	0.130192	0.125321	0.115236	0.009924	0.000000	0.000000	0.293754	0.081076	0.000000	0.000000	0.000000	0.000000	0.000000	0.131052	0.000000	0.004999	0.000000	0.000000	0.000000	0.423561	0.433539	0.000000	0.000000	0.080523	0.000000	0.000000	0.000000	0.000000	0.759651	0.335308	0.388191	0.049169	0.008934	0.012944	0.000000	0.006641	0.022589	0.000000	0.000000	0.000000	0.019829	0.060343	0.105453	0.008772	0.021723	0.037993	0.232328	0.075798	0.120134	0.172675	0.038161	0.000000	0.000000	0.000000	0.000000	0.000000	0.016915	0.000000	0.000000	0.040163	0.020420	0.000000	0.012173	0.021140	0.002157	0.017437	0.070652	0.000000	0.000000	0.000000	0.000000	0.048792	0.018552	0.000000	0.000000	0.000000	0.000000	0.151403	0.000000	0.000000	0.018641	0.076389	0.025521	0.000000	0.000000	0.000000	0.000000	0.000000	0.000000
1.260000	0.284813	0.165925	0.150160	0.118208	0.112865	0.102749	0.000000	0.000000	0.000000	0.249249	0.078119	0.000000	0.000000	0.000000	0.000000	0.000000	0.129751	0.000000	0.005581	0.000000	0.000000	0.000000	0.423395	0.432986	0.000000	0.000000	0.072501	0.000000	0.000000	0.000000	0.000000	0.677809	0.299470	0.423781	0.053639	0.009743	0.014132	0.000000	0.007245	0.024676	0.000000	0.000000	0.000000	0.000000	0.000130	0.003261	0.000000	0.000000	0.000000	0.278674	0.109535	0.191521	0.071498	0.000000	0.010692	0.021385	0.030730	0.034193	0.054541	0.000000	0.000357	0.027117	0.021290	0.047260	0.072401	0.000000	0.000000	0.013148	0.000000	0.000000	0.000000	0.000000	0.000000	0.000000	0.000000	0.000000	0.000000	0.000000	0.000000	0.000000	0.152612	0.000000	0.000000	0.018815	0.077022	0.025726	0.000000	0.000000	0.000000	0.000000	0.000000	0.000000
1.276000	0.240459	0.121178	0.095228	0.109049	0.099629	0.084271	0.000000	0.000000	0.000000	0.179798	0.078538	0.000000	0.000000	0.000000	0.000000	0.000000	0.138263	0.001670	0.001590	0.000000	0.000000	0.000000	0.462358	0.471235	0.000000	0.000000	0.050212	0.044964	0.000000	0.000000	0.000000	0.547351	0.242195	0.448025	0.056696	0.010294	0.014941	0.000000	0.007656	0.026094	0.000000	0.000000	0.000000	0.002399	0.000000	0.000000	0.000000	0.000000	0.000000	0.159505	0.070333	0.121638	0.000000	0.000000	0.083478	0.068175	0.073383	0.075934	0.102014	0.000000	0.014700	0.028169	0.000000	0.023119	0.104229	0.000000	0.000000	0.000000	0.000000	0.000000	0.000000	0.025616	0.026866	0.035545	0.000000	0.000000	0.000000	0.000000	0.000000	0.000000	0.270581	0.000000	0.000000	0.033417	0.136636	0.045619	0.000000	0.000000	0.000000	0.000000	0.000000	0.000000
1.292000	0.191022	0.105238	0.098076	0.096197	0.089288	0.078261	0.000000	0.000000	0.000000	0.137810	0.077373	0.000000	0.000000	0.000000	0.000000	0.000000	0.138210	0.010651	0.003514	0.000000	0.000000	0.000000	0.471805	0.481722	0.000000	0.000000	0.058198	0.168716	0.000000	0.000000	0.000000	0.436785	0.193463	0.394197	0.049907	0.009062	0.013143	0.000000	0.006737	0.022949	0.000000	0.000000	0.000000	0.038675	0.000000	0.000000	0.007723	0.000000	0.000000	0.116903	0.053621	0.086780	0.000000	0.000000	0.082438	0.063936	0.064457	0.069544	0.096689	0.000000	0.014023	0.022816	0.000000	0.008069	0.082944	0.000000	0.000000	0.000000	0.000000	0.000000	0.000000	0.064346	0.067369	0.091336	0.000000	0.000000	0.000000	0.000000	0.000000	0.000000	0.356649	0.000000	0.000000	0.044130	0.180215	0.060151	0.000000	0.000000	0.000000	0.000000	0.000000	0.000000
1.308000	0.122080	0.088738	0.110744	0.073863	0.072265	0.069652	0.000000	0.000000	0.000000	0.098657	0.069866	0.026727	0.000000	0.000000	0.000000	0.000000	0.123268	0.017478	0.007573	0.000000	0.000000	0.000000	0.434813	0.445648	0.015465	0.002469	0.071380	0.232946	0.000000	0.000000	0.000000	0.328322	0.145603	0.327659	0.041535	0.007553	0.010923	0.000000	0.005617	0.019047	0.000000	0.000000	0.000000	0.102064	0.012097	0.000000	0.024280	0.011772	0.000000	0.146212	0.063774	0.105719	0.000000	0.000000	0.054464	0.052767	0.054897	0.069275	0.115887	0.000000	0.005726	0.018685	0.015089	0.034660	0.093770	0.000000	0.000000	0.000000	0.000000	0.000000	0.000000	0.096408	0.101033	0.139818	0.000000	0.000000	0.000000	0.000000	0.000000	0.000000	0.403372	0.000000	0.000000	0.049989	0.203937	0.068052	0.000000	0.000000	0.000000	0.000000	0.000000	0.000000
1.324000	0.036516	0.045947	0.083401	0.046081	0.046799	0.048327	0.000000	0.000000	0.000000	0.064897	0.059628	0.078141	0.000000	0.000000	0.000000	0.000000	0.099369	0.026678	0.013694	0.000000	0.000000	0.000000	0.391943	0.402429	0.045084	0.009927	0.064929	0.264685	0.000000	0.000000	0.000000	0.232208	0.103160	0.262486	0.033352	0.006091	0.008752	0.000000	0.004529	0.015217	0.000000	0.000000	0.000000	0.194573	0.048893	0.000000	0.049715	0.033442	0.010114	0.157932	0.066216	0.106319	0.000000	0.000000	0.019053	0.033854	0.034091	0.060233	0.127023	0.000000	0.000000	0.010684	0.035830	0.050391	0.084401	0.000000	0.000000	0.000000	0.000000	0.000000	0.000000	0.131018	0.137462	0.192725	0.000000	0.000000	0.000000	0.000000	0.000000	0.000000	0.422086	0.000000	0.000000	0.052359	0.213474	0.071226	0.000000	0.000000	0.000000	0.000000	0.000000	0.000000
1.340000	0.000000	0.020923	0.094633	0.011706	0.019799	0.032865	0.000000	0.000000	0.000000	0.039777	0.044205	0.112900	0.000000	0.000000	0.000000	0.000000	0.064435	0.031393	0.022123	0.000000	0.000000	0.000000	0.302187	0.313050	0.087822	0.023393	0.077702	0.230292	0.000000	0.000000	0.000000	0.147771	0.065767	0.182515	0.023281	0.004269	0.006092	0.000000	0.003169	0.010548	0.000000	0.000000	0.000000	0.298309	0.107847	0.009201	0.077717	0.061441	0.036761	0.169483	0.064941	0.108560	0.000000	0.000000	0.000000	0.000000	0.000000	0.031101	0.123935	0.000000	0.000000	0.000000	0.080253	0.094603	0.069611	0.000000	0.000000	0.000000	0.000000	0.000000	0.000000	0.161108	0.169200	0.238991	0.000000	0.000000	0.000000	0.000000	0.000000	0.000000	0.433356	0.000000	0.000000	0.053760	0.219181	0.073119	0.000000	0.000000	0.000000	0.000000	0.000000	0.000000
1.356000	0.000000	0.004960	0.095642	0.000000	0.002193	0.021595	0.000000	0.000000	0.000000	0.026623	0.032753	0.118298	0.019851	0.018541	0.000000	0.000000	0.039032	0.030678	0.025785	0.000000	0.000000	0.000000	0.224682	0.235135	0.106851	0.030038	0.080867	0.182530	0.000000	0.000000	0.000000	0.086366	0.038487	0.102329	0.013129	0.002422	0.003423	0.000000	0.001795	0.005896	0.000000	0.000000	0.000000	0.437771	0.197295	0.090759	0.116086	0.102557	0.079532	0.157445	0.049196	0.089887	0.000000	0.000000	0.000000	0.000000	0.000000	0.000000	0.092104	0.033160	0.000000	0.000000	0.145858	0.154935	0.023073	0.000000	0.000000	0.000000	0.000000	0.000000	0.000000	0.181919	0.191195	0.271081	0.000000	0.000000	0.000000	0.000000	0.000000	0.000000	0.400719	0.000000	0.000000	0.049673	0.202618	0.067593	0.000000	0.000000	0.000000	0.000000	0.000000	0.000000
